<?xml version="1.0" encoding="UTF-8" standalone="no"?>
<!-- Created using Krita: http://krita.org -->

<svg
   xmlns:dc="http://purl.org/dc/elements/1.1/"
   xmlns:cc="http://creativecommons.org/ns#"
   xmlns:rdf="http://www.w3.org/1999/02/22-rdf-syntax-ns#"
   xmlns:svg="http://www.w3.org/2000/svg"
   xmlns="http://www.w3.org/2000/svg"
   xmlns:sodipodi="http://sodipodi.sourceforge.net/DTD/sodipodi-0.dtd"
   xmlns:inkscape="http://www.inkscape.org/namespaces/inkscape"
   width="142.10284pt"
   height="38.499996pt"
   viewBox="0 0 142.10283 38.499995"
   version="1.1"
   id="svg6"
   sodipodi:docname="xenarte-mark.svg"
   inkscape:version="0.92.4 (5da689c313, 2019-01-14)">
  <metadata
     id="metadata10">
    <rdf:RDF>
      <cc:Work
         rdf:about="">
        <dc:format>image/svg+xml</dc:format>
        <dc:type
           rdf:resource="http://purl.org/dc/dcmitype/StillImage" />
        <dc:title></dc:title>
      </cc:Work>
    </rdf:RDF>
  </metadata>
  <sodipodi:namedview
     pagecolor="#ffffff"
     bordercolor="#666666"
     borderopacity="1"
     objecttolerance="10"
     gridtolerance="10"
     guidetolerance="10"
     inkscape:pageopacity="0"
     inkscape:pageshadow="2"
     inkscape:window-width="1280"
     inkscape:window-height="697"
     id="namedview8"
     showgrid="false"
     inkscape:zoom="3.1502508"
     inkscape:cx="64.120826"
     inkscape:cy="-11.312294"
     inkscape:window-x="-8"
     inkscape:window-y="-8"
     inkscape:window-maximized="1"
     inkscape:current-layer="svg6"
     scale-x="20"
     fit-margin-top="2"
     fit-margin-left="2"
     fit-margin-right="2"
     fit-margin-bottom="2"
     units="pt" />
  <defs
     id="defs2" />
  <path
     style="fill:#000000;fill-opacity:1;stroke:#000000;stroke-width:0.05889847;stroke-linecap:round;stroke-linejoin:round;stroke-miterlimit:2;stroke-dasharray:none;stroke-opacity:0.90277782"
     d="M 5.5687263,2.0455785 C 4.588744,2.6417099 3.5088498,3.1380215 2.9614508,4.1667453 2.3088039,4.7296371 1.9898404,6.0430177 2.0334484,6.9950137 2.6986072,7.1392051 3.0104867,6.1514579 4.2700565,6.4133539 c 0.8038027,-0.011408 2.2526162,0.3563706 2.933783,1.0235722 0.3452754,0.163299 0.4081113,0.566866 0.8450186,0.839627 0.6205389,1.147109 1.5121093,1.9735249 1.9832409,3.2700979 0.357695,0.547794 0.91227,1.857201 0.176731,2.34215 -0.8406943,0.897578 -1.9899562,1.486396 -2.695595,2.518891 -0.7519147,0.603308 -1.3580097,1.352407 -1.9003488,2.165364 -0.6022309,0.826563 -1.159382,1.698234 -1.3257177,2.960794 -0.2862115,1.08201 0.9950703,0.192914 1.4582895,0.0885 0.9489784,-0.568265 2.0517805,-0.982742 3.0934947,-1.458336 0.6069229,-0.465942 1.0240502,-1.496892 2.0327363,-1.281539 -0.289707,1.717904 2.76e-4,3.516648 -0.265143,5.08197 -0.18676,1.46427 -1.1173385,2.747989 -1.7675933,4.021414 -0.8312185,1.24577 -1.4840494,2.669882 -2.342224,3.888806 -0.1646797,1.040656 -0.8624985,1.829426 -0.5302871,3.093412 0.2165677,0.759036 0.6927589,1.429659 1.4582895,1.502468 0.5212712,-0.642527 0.7712347,-1.556113 1.193238,-2.297917 0.1690037,-1.068256 0.5271591,-1.947508 0.8395905,-2.872428 0.5755514,-1.000627 1.0501784,-2.102151 1.9002564,-2.828241 0.372048,-0.570767 0.897367,-0.988143 1.237306,-1.590898 0.991575,-0.485355 1.053951,0.854467 1.546702,1.281539 0.359535,0.892528 1.143558,1.360623 1.811845,1.944426 1.299037,0.792708 2.486203,1.69725 4.198136,2.076989 0.901691,0.649058 2.047365,0.143013 3.297275,0.0055 0.494039,-0.437929 1.923716,-0.38651 2.345628,-0.906447 0.841706,-0.422068 0.611891,-1.667718 1.162602,-2.192311 0.11362,-1.089655 0.610419,-1.993461 0.530287,-3.137599 -0.535347,-0.282725 -1.067382,0.293526 -1.41413,0.618653 -0.725511,0.242705 -1.977996,0.717047 -2.651435,0.309349 -0.925795,0.107263 -1.878729,-0.379398 -2.386384,-0.972189 -0.309764,-1.250481 -0.276276,-2.757273 -0.486127,-4.198147 -0.03036,-1.022587 -0.556507,-2.237206 -0.265144,-3.137599 1.11145,-0.361578 2.184628,-0.761455 2.960831,-1.458289 0.973542,-0.499504 1.688473,-1.25762 2.518956,-1.900239 0.246467,-0.569856 0.798742,-1.954978 0.176731,-2.430525 -1.13031,0.490074 -2.362555,0.878184 -3.535369,1.325773 -0.830391,0.309883 -1.774309,0.904662 -2.784008,0.751206 0.0138,-1.773969 -0.486311,-3.578545 -0.441875,-5.0819699 1.332342,0.4082769 2.580044,-0.337198 3.888833,-0.486081 0.750627,-0.413116 1.749929,-0.577447 2.253721,-1.237361 0.78347,-0.56867 1.583133,-1.3180546 1.767685,-2.3421324 -0.02208,-0.9135309 0.76001,-2.7590201 -0.530288,-2.2537478 -0.77519,0.5064316 -1.652501,0.9106329 -2.563115,1.2815486 C 23.507316,4.8901217 22.930385,5.0441478 22.429077,5.1652656 21.558667,5.38946 21.06472,4.8106338 20.676756,4.579107 19.91095,3.9379693 18.847156,4.003602 17.677194,3.9459917 16.708067,4.1258974 15.847593,4.4143905 15.37913,5.0949593 14.582227,5.888872 14.042924,6.9404486 12.639282,7.1277601 11.725816,6.3619444 11.42792,4.9805943 10.562386,4.1669385 10.134403,3.622649 9.5656594,3.1399351 9.1177123,2.6355643 8.657897,2.0922593 7.1163477,2.2399742 5.5687263,2.0457717 Z m 108.7987437,0 c -0.74732,0.2543152 -1.10879,0.8944685 -1.3697,1.6350764 -0.45282,0.8142447 -0.81962,1.7142883 -1.28201,2.5188913 -0.46249,1.2461559 -1.07861,2.3386449 -1.54652,3.5794659 -0.15309,0.6963739 -0.67215,1.2271669 -0.70693,1.9002559 0.71144,0.61018 2.31472,0.110363 2.65116,1.104735 0.68144,2.648344 0.3496,5.103166 0.2208,7.203201 0.20176,1.192382 -0.0662,2.792121 0.0442,4.10978 0.0991,0.97702 0.057,2.109354 -0.57435,2.73982 -0.35108,0.937791 -1.38341,1.568781 -0.88376,2.960803 0.42192,0.94793 1.27779,1.461951 1.76741,2.34216 0.6095,0.479227 0.94457,1.93265 1.98886,1.193164 1.27659,-0.461802 2.01139,-1.465217 2.78428,-2.430525 0.70886,-0.979624 1.18615,-2.084027 1.28137,-3.491137 0.2818,-0.808586 -0.0184,-1.61112 -0.66276,-1.856005 -0.68375,-0.347501 -1.63889,-0.423631 -1.59123,-1.502514 -0.23249,-1.68126 0.0708,-3.476646 -0.17673,-5.302898 0.22954,-1.831662 -0.22274,-3.90716 0.13257,-5.656491 0.21758,-1.653145 1.09783,-2.64379 2.65162,-2.960803 1.36675,-0.4092429 3.21843,0.0817 3.62378,-1.3257269 0.0969,-1.297207 0.44739,-2.8007053 0.26505,-4.0214052 -0.64418,-0.1081551 -0.99654,-0.5641523 -1.59059,-0.088412 -1.23068,0.1114302 -2.49439,0.6539441 -3.62378,0.574493 -0.94732,0.019412 -1.39315,-0.689686 -1.63548,-1.5025046 -0.79648,-0.3674197 -0.41128,-1.9141762 -1.76736,-1.7234514 z M 76.009602,6.1995462 c -1.707241,0.6174294 -3.367286,1.0085479 -4.880776,1.8109429 -0.871146,0.593234 -1.674029,1.105894 -2.145804,1.9895159 -0.397071,0.569295 -0.950543,1.431149 -0.883751,2.165354 0.992219,0.324722 2.326584,0.01822 3.181907,-0.309359 1.257546,-0.129508 2.385004,-0.01822 3.66739,-0.08841 1.400789,0.160696 2.459247,0.663715 3.181906,1.502523 0.622655,0.337539 0.167164,0.972218 -0.353463,1.104734 -0.658719,0.71103 -1.569334,1.170321 -2.430176,1.679264 -1.367118,1.06339 -3.066171,1.79489 -4.198045,3.093412 -0.590455,0.490212 -1.210166,1.530123 -0.663503,2.386283 0.856243,0.761216 1.734749,1.500214 1.50291,3.349447 -0.07268,1.253756 -0.08556,2.561736 -0.13248,3.853763 -0.128708,1.019948 -0.264592,2.408768 -0.706927,3.270153 -0.03036,0.825377 0.373428,1.217287 1.10455,1.28153 1.585066,0.368267 3.086503,1.090042 4.949224,0.618653 1.354973,-0.368569 2.314256,-1.132775 3.226158,-1.944435 0.612443,-0.23401 0.869675,0.149703 1.237214,0.751262 0.366436,0.704065 1.069498,1.676633 2.033013,1.237352 1.503277,0.10395 1.847725,-0.9508 2.562839,-1.635077 0.406548,-0.387135 0.387596,-1.069599 -0.04416,-1.458271 -0.739678,-0.892775 -1.454149,-2.008918 -1.590677,-3.358528 -0.414091,-1.594421 -0.336443,-3.967944 -0.751087,-5.700678 -0.298723,-1.662409 -0.313627,-3.842612 0,-5.523882 0.127512,-1.050822 0.438564,-1.918123 0.971979,-2.56307 C 85.039478,12.6586 84.729347,11.667237 84.273488,10.927954 83.422857,10.217016 82.741138,9.3373501 81.754256,8.7626091 81.063797,8.0831331 80.198999,7.5779341 79.27946,7.1275211 77.055088,6.4697682 77.275796,6.1660031 76.009694,6.1995002 Z m 16.969374,0.5302963 c -1.242645,0.3187886 -1.713224,1.4098056 -2.474891,2.2095416 -0.16238,0.664028 -0.986698,1.1833759 -0.353555,1.9002569 0.202951,1.16699 1.122674,1.617063 1.502265,2.607248 0.651454,1.051715 0.07636,3.149366 0.707666,4.28653 0.246099,1.956865 0.319423,3.467484 0.309211,5.302954 0.0138,1.9039 0.738023,3.457253 0.353555,5.347141 -0.235795,1.093069 -0.822662,2.062986 -0.883753,3.181723 1.058921,0.910982 2.234035,1.246855 3.402249,2.03281 1.21035,0.288051 2.525488,-1.042183 4.065565,-2.209542 -0.046,-0.544869 0.919172,-0.830519 0.309396,-1.281548 -0.539855,-0.551834 -0.676751,-1.461556 -1.281466,-2.032801 -0.510875,-1.286959 -0.303508,-3.348868 -0.441783,-4.880831 -0.08648,-1.257537 0,-2.516739 -0.04416,-4.00157 0.140483,-1.100696 0.01748,-2.546887 0.92791,-3.049225 0.138,-0.84569 1.118715,-0.784179 1.856285,-0.795393 0.72063,0.192647 1.24586,0.580601 1.72325,1.016377 1.43795,0.195012 1.54458,-1.229477 2.07726,-2.076988 0.14895,-1.485191 1.14429,-2.77466 0.97207,-4.153968 -0.31354,-0.9827979 -1.1431,-1.4496599 -1.98885,-1.9002479 -1.07226,-0.05327 -2.0343,0.324134 -3.09295,0.618708 -0.922846,0.270342 -1.9618,0.42457 -2.607547,0.97219 -0.763691,-0.03174 -0.809599,-0.78117 -1.502265,-0.883824 -0.941803,-0.737544 -1.656734,-1.701813 -2.872604,-2.165354 -0.329911,0.075532 -0.348495,-0.1037391 -0.662766,-0.04416 z M 40.92169,7.1275671 c -1.062506,0.366297 -2.039545,0.818155 -2.739939,1.546711 -0.986699,0.618864 -1.442282,1.7688159 -2.607184,2.2095409 -0.751363,0.603887 -1.518089,1.192318 -2.342132,1.723443 -0.813279,0.821843 -1.704481,1.565727 -2.518956,2.386338 -0.619067,0.397283 -1.044658,0.988124 -1.546609,1.502467 -0.390723,1.34766 0.385571,2.365795 1.546609,2.56307 1.062691,0.101062 2.051689,0.275806 1.811937,1.679264 -0.01196,1.581192 0.09108,3.035774 0.353372,4.68431 -0.254656,1.730278 0.594871,3.447114 -0.17664,4.816808 -0.351715,0.605975 0.23,1.448078 0.83959,1.635067 0.4554,0.375617 1.231602,0.279404 1.723434,0.662905 1.287445,-0.0028 2.155372,0.934038 3.535369,0.839628 1.669614,-0.0391 2.900296,-0.51715 3.844582,-1.281549 0.920458,-0.316903 1.692889,-0.781907 2.386384,-1.325718 0.358063,-0.527867 0.620447,-1.057547 0.751179,-1.723506 0.539579,-1.117145 -1.042635,-1.72348 -2.052609,-1.458272 -1.015402,-0.185839 -1.929513,-0.473127 -2.719975,-0.883824 -0.961951,-0.628975 -1.756093,-1.425638 -2.25372,-2.518891 -0.550711,-0.855295 -0.918251,-1.893817 -1.104919,-3.113201 -0.275079,-1.086399 -0.09522,-2.113972 0.795523,-2.366494 0.938398,-0.446208 2.030161,-0.739172 3.004991,-1.148986 0.959926,-0.435242 1.582213,-0.573766 2.518864,-0.839636 1.088818,-0.219171 2.095848,-0.87076 1.679273,-2.209533 C 45.34035,13.476752 44.716407,12.76023 44.324396,11.811822 43.629613,10.2381 43.357938,8.2413261 42.026424,7.3043081 41.668269,7.2319081 41.427229,7.0568651 40.92169,7.1275671 Z m 90.90118,1.502459 c -0.8762,0.25805 -1.02653,1.241878 -1.7675,1.6350849 -0.47122,0.987168 -1.27383,1.642979 -1.76796,2.607322 -0.62394,0.74587 -0.94935,1.79028 -1.76732,2.342095 -0.7221,0.88364 -1.8928,1.318753 -2.12151,2.695697 0.27443,0.624228 0.79616,1.001234 1.01678,1.679264 0.38925,0.756284 0.94208,1.495972 1.06048,2.386273 0.45301,0.756487 0.0819,2.11503 0.22089,2.916616 0.18713,1.688271 -0.74823,3.299593 -0.48603,4.772676 0.42117,0.707046 0.35365,2.193966 1.54652,1.856005 1.01144,0.0046 1.53078,0.580491 2.60755,0.397724 0.95413,-0.02355 2.44278,0.216761 3.27022,-0.08841 1.81737,-0.983957 4.00181,-0.641423 4.06502,-1.811817 0.85127,-0.710248 1.83227,-1.29073 2.20983,-2.474713 0.60591,-0.69114 -0.62606,-1.050003 -1.1488,-1.28153 -1.9711,-0.179538 -3.55184,-0.749403 -4.77258,-1.679264 -1.1109,-0.980903 -1.9676,-2.215945 -2.74013,-3.535324 -0.16753,-0.439069 -0.76332,-1.221813 0.13258,-1.28154 0.74078,-0.392913 1.61855,-0.53979 2.3424,-1.016368 1.15249,-0.33522 1.98398,-0.991344 3.00463,-1.458335 0.27038,-0.613566 0.86581,-0.902068 1.32617,-1.325727 0.0699,-1.663284 -0.81364,-2.711751 -1.10528,-4.153968 -0.67896,-0.646667 -1.63769,-1.01359 -2.29761,-1.679264 -1.20041,-0.06532 -1.50649,-1.4034579 -2.82835,-1.5025319 z M 15.511793,9.5580921 c 0.897459,0.152453 1.845609,-6.53e-4 2.607276,0.176741 0.297527,0.8444949 0.464599,1.7636189 0.452639,2.4792309 0.30222,0.725575 0.28612,1.953156 0.21022,2.779536 -0.742255,0.0874 -1.562802,0.05253 -2.165493,-0.30935 -0.313995,-0.421442 -1.406493,0.383124 -1.414037,-0.530278 0.200744,-1.306692 -0.381523,-1.981097 -0.309396,-3.270153 -0.402131,-0.809433 0.06348,-1.1117349 0.618791,-1.3257269 z m 38.71151,0.8396279 c -1.727205,1.151203 -2.122528,2.432236 -4.242389,4.463271 -0.425039,0.50886 -0.800766,1.699688 -0.441967,2.34215 0.553195,0.610502 1.739349,0.588137 1.41413,2.076989 -0.04048,1.970903 0.419151,3.526013 0.309303,5.56806 0.254564,1.476432 0.08924,2.923673 -0.751179,3.712065 -0.392287,0.739615 -0.155387,1.984584 0.618607,2.209597 0.3473,0.580722 1.14273,0.713266 1.502542,1.28154 1.663817,0.443834 2.115352,-0.861975 3.093311,-1.36997 0.63397,-0.529717 0.915582,-1.411774 1.458289,-2.032801 0.102028,-1.192143 -0.673623,-1.50647 -0.928002,-2.342095 -0.431572,-0.992246 -0.719807,-2.348112 -0.618607,-3.446885 0.06716,-1.755522 0.198167,-3.705855 0.75127,-5.347141 0.431296,-0.347106 0.789175,-1.288688 1.413946,-0.57453 0.683099,0.996184 1.631065,1.727665 1.856373,3.181796 0.129904,2.127469 0.471591,3.939029 0.485943,6.230947 0.106168,1.45495 -0.521823,2.493187 -1.237122,3.270153 -0.350703,0.613041 -0.643815,1.438013 0.13248,1.767639 0.488611,0.586582 1.350098,0.800454 1.855821,1.369905 0.874274,0.310316 1.116418,1.389097 2.539011,1.016424 0.588339,-0.0587 1.163706,-0.534252 1.394074,-1.104789 0.554943,-0.638111 1.129022,-1.257178 1.546425,-2.032811 0.244536,-0.616178 0.512071,-1.643052 -0.04416,-2.121166 -0.369471,-0.573196 -0.630751,-1.254639 -1.104642,-1.723443 -0.369103,-1.029202 -0.404339,-1.85514 -0.486035,-3.225974 0.046,-1.605903 -0.395691,-3.160967 -0.132572,-4.684246 -0.369379,-1.013194 0.121624,-1.703432 0.839499,-1.988613 0.680891,-0.366169 0.983754,-1.723001 0.08832,-2.032801 -0.857255,-0.748226 -1.183118,-2.027907 -2.253444,-2.563079 -0.929935,-0.469236 -1.23105,-1.754096 -2.5633,-1.679264 -0.688435,0.07746 -0.893134,0.82718 -1.280546,1.106519 -0.512439,1.055045 -1.03555,1.792028 -1.636217,2.649734 -0.673899,-0.19515 -0.769211,-0.978796 -1.192962,-1.414093 -0.572883,-0.769643 -0.754491,-1.315763 -1.28165,-2.121167 -0.144716,-0.377917 -0.488059,-0.535135 -1.104642,-0.441921 z m -17.102035,1.104752 c 1.35387,0.0299 1.63907,0.975226 2.121149,1.811864 0.525779,0.573214 1.161314,1.575009 0.928002,2.474713 -0.868478,0.502806 -1.570345,1.003028 -2.541496,1.345562 -0.241039,0.219944 -1.03923,0.19365 -1.10823,-0.353546 -0.107179,-1.472918 -0.159251,-3.828666 0.512164,-5.190172 0.127695,0.06872 0.0782,-0.03928 0.08832,-0.08841 z m 94.613192,0.04416 c 0.5509,0.321577 0.4359,1.141792 0.8395,1.546711 0.21896,0.758677 0.3818,1.302138 0.75118,1.900238 0.27158,1.217425 -0.45071,1.581174 -1.1489,1.944371 -0.38317,0.456337 -1.13656,0.542495 -1.4581,1.060611 -0.78062,-0.09117 -1.46206,-0.594448 -1.10455,-1.546702 0.15051,-2.054209 0.93978,-3.744209 2.12087,-4.905229 z M 18.9145,18.838199 c 1.008962,-0.01279 0.432951,1.380329 0.83959,1.900184 0.01012,1.42493 0.202492,2.668519 0.441967,3.864471 0.162012,0.701306 0.13018,1.631783 -0.618699,1.084945 -1.192962,-0.324198 -1.704297,-1.330115 -2.25372,-2.297898 -0.133124,-1.397248 -0.907394,-2.614939 -0.79543,-3.844628 0.724406,-0.296763 1.629869,-0.439878 2.386292,-0.707074 z m 59.392706,0.707074 c 0.527527,0.490056 0.458067,1.46116 0.707019,2.185153 0.391275,1.56063 0.704074,3.125428 1.193606,4.487716 0.251159,1.379786 -0.548687,2.293344 -0.972715,3.270088 -0.730202,0.429915 -1.317069,-0.523065 -1.89998,-0.795385 -1.046683,-0.951232 -0.479964,-3.374508 -0.839499,-4.969261 -0.119416,-1.111165 -0.531759,-2.676588 0.441875,-3.073558 0.388332,-0.445206 1.059286,-0.586416 1.369694,-1.104753 z"
     id="shape1"
     inkscape:connector-curvature="0"
     sodipodi:nodetypes="cccccccccccccccccccccccccccccccccccccccccccccccccccccccccccccccccccccccccccccccccccccccccccccccccccccccccccccccccccccccccccccccccccccccccccccccccccccccccccccccccccccccccccccccccccccccccccccccccccccccccccccccccccccccccccccccccccccccccccccccccccccccccccccccc" />
</svg>
