<?xml version="1.0" encoding="UTF-8" standalone="no"?>
<!-- Created using Krita: http://krita.org -->

<svg
   xmlns:dc="http://purl.org/dc/elements/1.1/"
   xmlns:cc="http://creativecommons.org/ns#"
   xmlns:rdf="http://www.w3.org/1999/02/22-rdf-syntax-ns#"
   xmlns:svg="http://www.w3.org/2000/svg"
   xmlns="http://www.w3.org/2000/svg"
   xmlns:sodipodi="http://sodipodi.sourceforge.net/DTD/sodipodi-0.dtd"
   xmlns:inkscape="http://www.inkscape.org/namespaces/inkscape"
   width="2475.35pt"
   height="621.088pt"
   viewBox="0 0 2475.35 621.088"
   version="1.1"
   id="svg6"
   sodipodi:docname="Xenarte - nimi - smooth - outlined.svg"
   inkscape:version="0.92.4 (5da689c313, 2019-01-14)">
  <metadata
     id="metadata10">
    <rdf:RDF>
      <cc:Work
         rdf:about="">
        <dc:format>image/svg+xml</dc:format>
        <dc:type
           rdf:resource="http://purl.org/dc/dcmitype/StillImage" />
        <dc:title></dc:title>
      </cc:Work>
    </rdf:RDF>
  </metadata>
  <sodipodi:namedview
     pagecolor="#5a5959"
     bordercolor="#666666"
     borderopacity="1"
     objecttolerance="10"
     gridtolerance="10"
     guidetolerance="10"
     inkscape:pageopacity="0"
     inkscape:pageshadow="2"
     inkscape:window-width="3840"
     inkscape:window-height="2104"
     id="namedview8"
     showgrid="false"
     inkscape:zoom="0.7875627"
     inkscape:cx="1167.0263"
     inkscape:cy="511.35838"
     inkscape:window-x="-16"
     inkscape:window-y="-16"
     inkscape:window-maximized="1"
     inkscape:current-layer="svg6" />
  <defs
     id="defs2">
    <filter
       inkscape:collect="always"
       style="color-interpolation-filters:sRGB"
       id="filter4703"
       x="-0.0037745023"
       width="1.007549"
       y="-0.014620366"
       height="1.0292407">
      <feGaussianBlur
         inkscape:collect="always"
         stdDeviation="3.7285702"
         id="feGaussianBlur4705" />
    </filter>
  </defs>
  <path
     style="fill:#ffffff;fill-opacity:0.90277782;stroke:#ffffff;stroke-width:0.99975002;stroke-linecap:round;stroke-linejoin:round;stroke-miterlimit:2;stroke-dasharray:none;stroke-opacity:0.54861109;filter:url(#filter4703)"
     d="m 1975.2129,5.2871094 c -20.3554,1.2714765 -34.0873,19.9873696 -40.0046,37.8793486 -21.8984,42.841614 -41.2905,86.989912 -59.261,131.577682 -2.9217,10.81548 3.9096,22.57545 14.7656,25.37695 9.6657,3.67962 21.4651,0.81878 29.9336,7.20703 4.3801,13.97966 5.125,29.04959 6.1445,43.55079 0.7359,34.66362 -3.844,69.27038 -2.0627,103.9654 -0.8673,20.70683 -0.1909,41.53399 -0.2342,62.17522 -5.2652,21.98827 -27.1725,37.40421 -27.1543,61.10547 -0.3013,20.61105 14.9838,36.38386 27.9475,50.56358 8.9035,9.69745 15.385,21.46201 24.2264,31.21962 8.5499,8.39989 22.3429,10.73745 32.8047,4.52539 32.624,-14.82656 56.5879,-44.69458 70.185,-77.24438 6.7095,-17.92171 10.5614,-37.42373 8.8755,-56.55444 -3.2396,-15.77795 -17.8277,-26.67062 -33.0039,-29.73438 -5.5148,-2.05534 -7.8338,-8.06988 -6.7561,-13.56028 -1.7793,-31.97042 -0.378,-64.20256 -1.3767,-96.25417 1.5323,-33.7608 -6.8572,-69.23067 6.7734,-101.48828 10.0547,-17.63136 32.3767,-21.90095 51.0567,-22.3418 17.1004,-0.72812 37.4371,-4.93016 46.1797,-21.41211 7.3147,-15.99798 4.7642,-33.97168 8.3085,-50.764879 1.2038,-12.782656 2.529,-27.088278 -4.5917,-38.453871 -12.1519,-8.413616 -28.611,-12.593819 -42.4571,-5.802734 -11.8139,2.776303 -23.8514,4.503323 -35.6005,7.828873 -8.9441,1.608506 -19.4969,3.601775 -27.6436,-1.215592 -6.1196,-7.408002 -8.3492,-17.416627 -15.2219,-24.248933 -4.5744,-10.754261 -9.8957,-24.4897436 -22.9324,-26.8623952 -2.8961,-0.7771511 -5.906,-1.0880879 -8.9004,-1.0371094 z M 123.0293,6.2480469 C 88.998695,19.766925 58.265171,48.743204 52.486328,86.166016 c -1.261465,9.595609 -2.760595,22.629954 6.31836,28.955074 9.718078,5.9668 21.675646,0.79491 29.599609,-5.75976 11.710493,-5.22814 24.707503,-0.58922 36.470703,1.9082 16.37238,4.78383 28.71548,17.65455 37.23439,31.93735 13.65063,19.77125 28.59563,39.67473 34.17772,63.43765 -3.80694,10.13713 -15.13764,13.91648 -22.11021,21.44424 -20.49322,17.377 -38.96497,37.16754 -55.66128,58.17881 -14.44929,19.80659 -27.324435,42.4434 -29.226558,67.33789 -0.309577,10.06361 7.669664,20.57191 18.394528,19.51172 15.59907,-0.53151 28.02585,-11.41841 42.1688,-16.6774 14.48543,-7.11524 30.15266,-12.45594 43.53238,-21.56674 2.0528,-1.66743 4.58693,-5.36658 5.88671,-5.91993 -0.9673,29.31827 3.13766,60.53471 -10.72265,87.37891 -18.08304,36.43194 -41.35806,70.01598 -60.06031,106.06885 -8.16422,20.83791 -16.99774,44.82541 -7.54516,66.77685 5.9019,14.84236 19.89812,28.89236 36.81445,28.13672 13.87229,-2.82775 18.46821,-18.21652 24.0578,-29.27105 7.82267,-15.55767 11.8577,-32.49766 16.42658,-49.17296 8.23672,-26.88922 24.22878,-50.4679 43.17718,-70.90091 3.21778,-3.72514 6.42288,-7.46368 9.48688,-11.31719 13.52195,31.47155 42.35428,52.71566 71.66992,68.45313 20.53829,11.04891 42.18358,21.3767 65.37932,25.14727 25.24049,1.58362 48.75828,-9.02023 72.78474,-14.82501 15.28505,-3.60387 28.48687,-15.26239 32.33399,-30.71484 2.10191,-8.72396 5.75867,-16.89465 9.13867,-25.1543 2.43931,-11.44689 5.24187,-22.78693 7.99011,-34.15807 1.67032,-9.78188 3.1421,-21.68539 -3.52527,-29.86536 -11.16758,-9.93207 -28.89611,-4.71822 -37.88671,5.63672 -12.73656,9.25566 -29.41192,9.01113 -44.20118,6.22656 -8.23798,-1.16203 -18.39873,-2.59047 -23.30078,-10.01953 -3.61726,-12.69983 -3.27239,-26.17907 -5.01036,-39.20929 -1.84678,-22.57592 -4.32616,-45.26698 -8.73964,-67.41571 35.17217,-11.82916 65.81573,-34.72585 92.07617,-60.57227 7.6841,-12.82547 11.92771,-28.45865 9.66993,-43.37109 -1.54919,-10.38387 -10.90597,-21.08326 -22.28125,-18.06641 -10.18678,2.45409 -19.1343,8.38899 -29.34,10.88469 -20.11732,7.39545 -39.79408,15.88145 -60.24594,22.12703 -0.93961,-18.46535 -4.8622,-36.61231 -6.30274,-55.0293 21.90905,-0.88238 42.88644,-8.53285 63.77032,-14.1959 17.633,-6.76168 34.24523,-16.48568 47.41095,-30.15332 14.85123,-13.58644 23.93446,-33.292704 24.07004,-53.443109 3.03717,-12.525045 4.26042,-29.071067 -7.45052,-37.610012 -11.75399,-7.25033 -25.77285,-0.133104 -35.74082,6.95908 C 444.47652,48.158802 424.64845,57.35048 403.25586,58.878906 389.39475,53.262122 378.4846,39.905784 362.49625,39.957818 335.02024,34.832636 302.80265,38.448223 282.83594,59.945312 272.49345,70.453198 264.78904,84.98268 250.20703,90.269531 236.95791,72.165223 228.58101,50.160918 210.93636,35.537218 199.71732,22.242228 185.25441,8.5930308 166.69922,8.6708637 152.19655,7.148934 137.51858,6.7679687 123.0293,6.2480469 Z M 1323.8555,76.021484 c -31.3013,7.637704 -62.0616,18.104899 -91.1376,31.986146 -27.2551,15.02633 -49.272,40.33454 -58.5988,70.17401 -2.5185,9.25334 -1.4028,22.3157 9.0215,26.04688 15.0008,6.32792 32.0317,2.98504 47.2927,-0.5565 14.0754,-3.69114 28.4365,-5.93147 42.9816,-4.68834 22.595,-0.84835 47.7483,-1.38804 66.3644,13.65499 1.6998,1.78878 7.4047,4.18522 2.7676,5.81641 -9.4714,7.70875 -18.8843,15.50363 -29.8262,21.09765 -22.568,14.42159 -45.3181,28.67868 -66.8867,44.56446 -14.5718,11.59672 -29.2949,25.36506 -34.9199,43.65625 -3.8384,15.06935 2.2199,32.4647 15.8183,40.52734 11.2141,10.43427 15.1972,26.84736 11.9643,41.55841 -1.6722,40.01064 0.023,81.18142 -14.0248,119.34784 -2.0242,18.62743 15.1556,34.9887 33.1839,35.54324 29.5509,7.80502 61.4228,18.23477 91.7285,7.94111 19.5434,-5.89102 35.9507,-18.56667 52.0641,-30.6113 6.1836,8.37195 9.529,18.91662 18.2793,25.27539 9.7859,8.71729 23.7904,11.59692 36.321,8.19908 14.8987,-0.92063 29.6902,-7.67206 38.3003,-20.19366 8.9233,-10.15129 20.9158,-21.58004 19.4744,-36.34917 -1.3803,-14.37468 -13.1784,-24.03042 -20.6699,-35.27344 -17.7008,-30.52944 -15.9156,-67.08307 -20.2917,-100.96143 -3.6667,-30.49139 -10.1348,-60.91782 -7.9376,-91.6799 1.2095,-19.47448 3.8019,-39.63079 12.4032,-57.304 7.8383,-11.27223 10.8051,-25.5348 7.8867,-38.96483 -2.8831,-22.36514 -17.8751,-41.09815 -35.4863,-54.22816 -25.0711,-22.66212 -52.7183,-44.079617 -85.6245,-53.740358 -13.0522,-4.809575 -26.1835,-11.335314 -40.4478,-10.838118 z m 287.6504,8.792969 c -22.8679,1.849842 -38.5013,21.254267 -51.2118,38.336697 -7.5839,11.95089 -18.0572,24.72723 -16.4992,39.74924 3.5738,18.62355 15.2608,34.0656 26.2246,48.99023 6.5446,9.01079 9.3349,19.95161 8.4991,30.86433 0.3367,18.19837 1.6201,36.61515 7.2959,54.00091 6.2638,43.66762 0.819,88.40864 10.6555,131.6771 3.4137,21.18145 0.1438,43.26269 -9.1547,62.67554 -4.2848,11.64017 -8.302,25.02934 -3.3778,37.08681 17.2173,18.74711 42.437,26.31432 63.5527,39.41211 19.3566,6.73886 38.9673,-4.86183 53.8045,-16.46251 13.3183,-10.40262 28.67,-19.48119 36.7209,-34.95546 4.5059,-6.45928 9.0051,-14.8387 4.459,-22.51757 -4.0028,-6.81566 -9.936,-12.30689 -12.9324,-19.8082 -3.6617,-8.52705 -9.7267,-15.85867 -13.1649,-24.3846 -4.339,-16.81736 -2.938,-34.93483 -3.8172,-52.37068 -0.668,-38.84257 -4.2982,-78.03591 1.9653,-116.58692 1.2623,-7.72303 8.4553,-11.98662 11.9726,-18.55273 4.8495,-4.56032 12.9412,-2.75628 18.8243,-1.33008 10.9019,2.70979 16.8101,14.46454 28.3066,15.81445 17.108,3.41252 32.8331,-9.69232 39.3516,-24.61718 10.2854,-21.77988 14.3539,-45.819 23.4218,-68.08399 5.5979,-17.52964 4.0871,-39.31492 -10.582,-52.09375 -12.6216,-13.42464 -30.9907,-24.41401 -50.0527,-20.04882 -25.7755,3.5716 -50.1481,13.28209 -75.086,20.18164 -3.3316,1.76047 -8.4403,6.59118 -11.0136,1.08789 -7.1443,-7.5777 -17.7601,-10.29084 -24.4316,-18.4211 -15.2477,-14.466655 -31.6226,-28.494107 -53.7305,-29.643357 z m -883.43754,6.771485 c -35.49299,6.235115 -63.62983,31.518762 -86.81055,57.554682 -29.36901,19.447 -58.13883,40.12307 -83.05244,65.18181 -16.16983,16.20809 -37.50386,29.16622 -46.63896,51.03499 -7.5265,26.37409 13.99382,56.16944 41.43359,57.30469 5.37039,0.82787 13.09699,-0.0208 16.05664,5.36133 0.55183,17.46967 -1.28664,35.43898 1.74431,52.94578 2.38225,19.75564 3.55468,39.52002 3.86507,59.36672 2.08033,18.185 6.6312,38.2248 -2.89844,55.15429 -5.95965,18.40767 7.13501,38.34214 24.64648,44.37696 20.51857,9.21732 43.25554,11.30972 63.8297,20.29578 15.26608,6.14404 32.01192,6.83544 48.07683,3.93002 21.27419,-3.14447 40.93479,-12.77039 58.80441,-24.27658 20.90415,-8.32885 42.86059,-21.63709 50.16413,-44.26479 5.87293,-13.41343 10.18181,-31.25918 -0.62116,-43.42076 -11.03571,-13.11157 -29.549,-14.92021 -45.52149,-13.93945 -24.49651,-3.24985 -48.42856,-15.62924 -62.41015,-36.34571 -15.21458,-21.70445 -24.62687,-47.84918 -26.35938,-73.99609 -0.41226,-5.38688 1.3827,-11.00928 6.90235,-13.01367 9.74186,-4.44882 20.32512,-6.75174 30.01336,-11.39989 24.05894,-9.5356 48.42874,-18.10541 73.47101,-24.71144 16.81736,-6.10296 31.28118,-22.9521 28.35939,-41.69373 -2.70078,-25.55941 -22.27046,-44.79306 -29.72658,-68.77307 -8.65787,-24.11104 -14.83755,-52.1664 -36.3496,-68.656248 -7.80121,-5.536531 -17.45418,-8.20193 -26.97852,-8.015624 z M 2268.8438,117.35156 c -16.1277,0.94508 -24.978,16.42916 -34.4922,27.3125 -11.6044,10.39148 -17.7845,25.2137 -28.3379,36.52344 -15.258,21.5654 -26.7372,46.85395 -48.6823,62.78466 -13.3069,11.57023 -28.3534,25.9235 -28.2337,44.90284 1.5826,15.23071 15.7193,24.60682 20.5646,38.58565 9.1059,16.96019 18.8357,35.0634 18.1156,54.82255 -0.4663,12.11402 -1.036,24.22685 -0.055,36.32227 -0.5573,24.56437 -14.2155,48.81742 -7.2521,73.7935 3.4538,10.77352 6.227,22.24382 12.6778,31.6772 6.113,8.36761 16.9066,11.82474 26.9297,10.23242 7.3748,-0.7263 14.0642,2.47022 20.7735,4.72657 19.2804,3.92331 39.0849,0.97084 58.5468,2.87787 14.3286,-0.0162 28.3106,-4.27928 41.002,-10.65912 18.8079,-5.72783 40.9522,-5.98784 55.7812,-20.55079 3.229,-6.53153 7.7498,-12.57697 14.3614,-16.02734 15.1307,-12.81961 30.1824,-29.41776 31.7871,-50.08008 -1.9178,-15.58132 -18.1407,-23.64391 -31.9049,-26.68865 -21.7294,-4.70857 -44.7041,-6.17903 -63.7938,-18.41919 -24.1802,-14.22926 -40.2032,-38.04759 -54.0513,-61.65388 -1.6885,-3.32866 -4.9248,-7.61835 1.1328,-7.89453 30.4971,-11.82026 61.4358,-24.14835 88.2209,-43.15825 4.8561,-6.22476 10.0259,-12.32789 17.0232,-16.17182 8.8875,-7.02579 11.5765,-19.24568 8.5391,-29.84766 -3.6974,-22.14609 -13.7545,-42.73845 -21.2969,-63.46289 -10.6952,-13.52881 -27.9227,-18.9612 -40.4043,-30.3125 -9.6413,-4.65367 -20.296,-8.2284 -27.457,-16.63867 -8.2479,-6.9955 -18.1989,-13.57196 -29.4941,-12.9961 z M 957.51562,146.7832 c -19.6486,0.64246 -32.29631,17.97117 -44.48722,31.07104 -15.95977,19.5645 -33.0022,38.303 -49.25301,57.60084 -9.81802,16.17789 -12.8909,40.00491 1.35352,54.625 5.25877,4.97931 14.29116,5.72937 17.18164,13.05273 -2.27298,33.71814 5.32409,67.14883 5.44768,100.75412 1.04949,17.85306 4.00614,37.50018 -6.81039,53.26581 -5.37573,6.99325 -9.96628,14.89749 -9.89315,24.0289 -0.95139,16.68708 8.50963,32.88333 22.76562,41.26563 8.52226,6.90441 18.12412,12.43958 26.28711,19.77148 20.70737,7.33746 42.95594,-3.88773 56.8457,-19.14844 12.8437,-8.8486 22.76848,-21.29864 30.01168,-34.96679 7.6735,-9.88398 12.4052,-23.87975 5.9942,-35.62352 -6.8696,-16.67131 -19.91132,-31.12322 -21.42586,-49.68992 -5.70307,-32.77427 -0.0149,-66.17577 4.91217,-98.66703 1.42258,-6.65645 3.53831,-13.35271 7.60159,-18.9043 10.6513,13.46676 23.9972,26.6317 25.7414,44.69329 2.423,17.38804 2.0886,35.64642 5.0334,53.25451 2.5206,24.41629 5.5927,49.54973 -0.1713,73.65767 -7.3252,16.73851 -24.8704,29.73796 -23.8438,49.54687 0.1547,13.72177 11.8218,23.18669 22.6449,29.5521 15.8254,10.5022 31.4227,21.19573 46.3297,32.74478 22.3129,12.02662 51.8686,0.64456 63.8321,-20.81246 13.9782,-18.14611 31.7285,-36.60772 32.9277,-60.83012 1.0467,-21.3782 -16.2968,-36.77402 -25.043,-54.6582 -7.4367,-14.70635 -5.9146,-32.07986 -7.4826,-48.11217 -0.5178,-19.25988 -2.1955,-38.47041 -3.7088,-57.64369 0.3532,-11.24906 0.7011,-22.61605 -0.6484,-33.8086 1.8766,-8.82577 13.077,-8.9241 17.6309,-15.7832 12.9741,-13.76094 13.2938,-39.799 -3.8692,-50.36133 -15.0846,-12.45601 -20.3334,-34.11794 -38.4336,-43.44922 -9.8592,-5.83693 -16.7516,-15.3001 -25.291,-22.7832 -11.7379,-9.73814 -30.1694,-13.81827 -43.043,-3.83398 -17.4085,12.11948 -24.4909,33.16998 -35.8359,49.95703 -1.9394,0.68297 -4.2848,-6.36368 -6.3984,-8.28516 -8.2181,-11.50083 -14.71453,-24.04653 -21.70902,-36.23437 -5.669,-8.3563 -14.59375,-15.56433 -25.19336,-15.2461 z m -661.30664,14.74024 c 10.53272,2.18043 22.2228,-1.17087 31.91016,2.2207 3.95021,18.58357 6.40594,37.52223 8.51758,56.47852 -0.13752,2.21063 1.22433,7.49372 -2.74414,5.83398 -9.77112,-0.76814 -18.02978,-7.71662 -27.61719,-8.54687 -4.32691,2.20925 -1.77682,-4.45936 -2.79687,-7 -1.56327,-15.1287 -5.93677,-29.85045 -7.02149,-44.92383 0.18184,-0.76381 -2.22258,-4.69495 -0.24805,-4.0625 z m 373.23047,34.52344 c 10.87537,7.09935 13.29294,21.17935 22.00956,30.2725 3.55596,5.37831 8.28465,11.61956 7.57443,18.22945 -11.45635,6.32971 -22.01122,14.7872 -34.95117,18.00195 0.6116,-22.09158 -2.547,-45.75358 5.36718,-66.5039 z m 1598.19925,17.20898 c 4.0916,11.67913 9.7785,22.92728 13.3633,34.69336 -1.2468,8.16857 -10.937,10.41371 -16.4771,15.01141 -6.4939,3.79675 -13.2884,8.62942 -19.8198,11.40656 -3.2914,-6.09169 1.4583,-12.96812 1.2873,-19.36304 2.9495,-17.47887 8.4097,-34.90112 18.5838,-49.58813 1.0208,2.61328 2.0416,5.22656 3.0625,7.83984 z M 349.11523,320.55273 c -0.26484,11.50958 3.9176,22.35436 3.90086,33.78151 0.73262,16.7599 3.81957,33.22541 6.5718,49.72435 -14.92723,-9.58194 -22.02261,-27.57449 -24.78516,-44.54101 -3.0604,-10.95593 -7.76426,-21.61176 -8.65039,-33.06641 7.55069,-2.01399 15.54276,-4.73837 22.96289,-5.89844 z m 1006.03907,21.7168 c 6.4459,32.35622 16.3778,63.92964 23.6465,96.05274 0.6972,12.16414 -5.9197,23.05946 -12.043,33.02148 -7.7823,-5.59961 -17.4007,-11.30558 -18.957,-21.61719 -3.1808,-16.21667 -0.37,-33.20753 -2.7082,-49.75085 -1.262,-15.86069 -4.9812,-31.70029 -4.5887,-47.54212 2.1268,-6.49641 8.8302,-9.39286 14.0977,-12.88476 0.1842,0.9069 0.3685,1.8138 0.5527,2.7207 z"
     id="shape1-3"
     inkscape:connector-curvature="0" />
  <path
     style="fill:#050000;fill-opacity:1;stroke:#040000;stroke-width:0.99974996;stroke-linecap:round;stroke-linejoin:round;stroke-miterlimit:2;stroke-dasharray:none;stroke-opacity:0.73333335"
     d="M 126.768,18.7527 C 110.13298,28.871451 91.803654,37.295887 82.5117,54.7577 71.433979,64.312269 66.018464,86.60566 66.7594,102.765 c 11.290721,2.44734 16.584472,-14.318711 37.96323,-9.873243 13.64536,-0.193247 38.23773,6.049118 49.79937,17.374243 5.86039,2.77201 6.9286,9.62206 14.34373,14.252 10.53294,19.47106 25.66742,33.49885 33.66327,55.507 6.07149,9.29837 15.48623,31.52446 3,39.756 -14.26848,15.23552 -33.77771,25.23029 -45.756,42.756 -12.76286,10.24047 -23.0509,22.95577 -32.255,36.755 -10.22319,14.03014 -19.68054,28.82612 -22.503,50.257 -4.8587,18.36611 16.88965,3.27442 24.753,1.501 16.10815,-9.64585 34.82683,-16.68117 52.508,-24.754 10.30305,-7.90909 17.3821,-25.40842 34.505,-21.753 -4.9179,29.15982 0.004,59.69211 -4.501,86.262 -3.17043,24.85467 -18.96581,46.64471 -30.004,68.26 -14.10926,21.14574 -25.19116,45.31884 -39.756,66.009 -2.79626,17.66423 -14.64022,31.05289 -9.001,52.508 3.67592,12.88395 11.7594,24.26709 24.753,25.503 8.8465,-10.90617 13.09165,-26.41368 20.253,-39.005 2.87019,-18.13281 8.94865,-33.05735 14.252,-48.757 9.76935,-16.98465 17.82578,-35.68222 32.255,-48.007 6.31404,-9.68829 15.23179,-16.77288 21.003,-27.004 16.82951,-8.23856 17.88913,14.50384 26.253,21.753 6.10348,15.14985 19.41131,23.09535 30.755,33.005 22.04963,13.45537 42.20072,28.80928 71.26,35.255 15.30487,11.01713 34.75144,2.42753 55.96771,0.0917 8.38569,-7.43352 32.65335,-6.56063 39.81543,-15.3861 14.28661,-7.16428 10.38512,-28.30804 19.73286,-37.21263 1.93075,-18.49601 10.36265,-33.83711 9.001,-53.258 -9.08639,-4.79894 -18.11705,4.98244 -24.003,10.501 -12.31318,4.11977 -33.57397,12.17129 -45.006,5.251 -15.71421,1.82081 -31.89015,-6.43979 -40.506,-16.502 -5.25698,-21.22585 -4.69067,-46.80235 -8.251,-71.26 -0.51954,-17.35752 -9.44752,-37.97455 -4.501,-53.258 18.86612,-6.13721 37.08178,-12.92489 50.257,-24.753 16.52494,-8.47873 28.66038,-21.34696 42.756,-32.255 4.1847,-9.6727 13.55845,-33.18383 3.001,-41.256 -19.18574,8.31859 -40.1022,14.90647 -60.009,22.504 -14.09502,5.25993 -30.11846,15.35583 -47.256,12.751 0.2365,-30.11159 -8.25506,-60.74277 -7.501,-86.262 22.61455,6.93004 43.79325,-5.72373 66.009,-8.251 12.74044,-7.01222 29.7038,-9.80153 38.255,-21.003 13.29879,-9.65267 26.87318,-22.372785 30.005,-39.7556 -0.37537,-15.506307 12.90001,-46.831956 -9.002,-38.2554 -13.15673,8.5963 -28.04882,15.45725 -43.506,21.7531 -8.30367,2.523884 -18.09649,5.138351 -26.6048,7.194226 -14.77525,3.805628 -23.15842,-6.019528 -29.74493,-9.949562 C 370.21453,50.871023 352.15656,51.985226 332.297,51.0072 315.84784,54.060977 301.24182,58.957885 293.291,70.51 279.76333,83.985994 270.60926,101.83559 246.785,105.015 231.28,92.015901 226.22308,68.568715 211.53,54.7577 204.26659,45.518844 194.61136,37.32504 187.00686,28.763972 179.20437,19.541703 153.03721,22.049063 126.768,18.7527 Z m 1846.762,0 c -12.6846,4.316749 -18.8199,15.182735 -23.25,27.7539 -7.6842,13.821099 -13.912,29.098651 -21.76,42.756 -7.8503,21.15245 -18.3091,39.69647 -26.25,60.7584 -2.5983,11.82021 -11.4099,20.83 -12,32.255 12.0761,10.35729 39.2896,1.87347 45,18.752 11.5673,44.95331 5.9357,86.62184 3.75,122.268 3.4227,20.23958 -1.1294,47.39395 0.75,69.76 1.6803,16.58399 0.9618,35.80446 -9.75,46.506 -5.9598,15.91822 -23.4798,26.62874 -15,50.257 7.1616,16.09039 21.6887,24.81528 30,39.756 10.3465,8.1346 16.033,32.80504 33.76,20.253 21.6667,-7.83862 34.14,-24.87064 47.26,-41.256 12.0327,-16.62825 20.1339,-35.37463 21.75,-59.259 4.782,-13.72504 -0.3049,-27.34744 -11.25,-31.504 -11.606,-5.89862 -27.8184,-7.1909 -27.01,-25.504 -3.9455,-28.53787 1.2047,-59.01285 -3,-90.012 3.8969,-31.09082 -3.7789,-66.32062 2.25,-96.014 3.695,-28.06072 18.6353,-44.87601 45.01,-50.257 23.1997,-6.94654 54.629,1.38692 61.51,-22.503 1.6456,-22.01898 7.5939,-47.539442 4.5,-68.2598 -10.9342,-1.835771 -16.9156,-9.576078 -27,-1.5002 -20.8891,1.89136 -42.3393,11.099904 -61.51,9.7514 -16.0801,0.330885 -23.6469,-11.706887 -27.76,-25.5036 -13.5201,-6.236659 -6.9804,-32.491524 -30,-29.2541 z m -651.09,70.5099 c -28.98,10.480356 -57.1566,17.11924 -82.8467,30.73929 -14.7874,10.06945 -28.417,18.77144 -36.4233,33.77011 -6.7397,9.6634 -16.1361,24.29256 -15,36.755 16.8404,5.51186 39.4906,0.30996 54.01,-5.251 21.3452,-2.1984 40.4819,-0.30875 62.25,-1.5 23.7769,2.72778 41.7433,11.26603 54.01,25.504 10.569,5.72956 2.8359,16.50246 -6,18.752 -11.1823,12.06902 -26.6377,19.86502 -41.25,28.504 -23.2059,18.05007 -52.0455,30.46654 -71.26,52.508 -10.0221,8.32094 -20.5404,25.97232 -11.26,40.505 14.5336,12.92098 29.4443,25.46489 25.51,56.85386 -1.229,21.28149 -1.465,43.48338 -2.25,65.41414 -2.1832,17.31296 -4.4908,40.887 -12,55.508 -0.5092,14.01017 6.3395,20.66249 18.75,21.753 26.9061,6.25096 52.3915,18.50242 84.01,10.501 22.999,-6.25603 39.2823,-19.22766 54.76,-33.005 10.3957,-3.9721 14.7631,2.54109 21,12.752 6.2207,11.95094 18.1557,28.45935 34.51,21.003 25.5159,1.76457 31.3635,-16.13912 43.5,-27.754 6.9019,-6.57121 6.5805,-18.15566 -0.75,-24.753 -12.5556,-15.15392 -24.6826,-34.09951 -27,-57.008 -7.0295,-27.06395 -5.7103,-67.35228 -12.75,-96.764 -5.0694,-28.21796 -5.3218,-65.22502 0,-93.763 2.1652,-17.83676 7.4455,-32.55853 16.5,-43.506 3.2521,-17.88075 -2.012,-34.70825 -9.75,-47.257 -14.4374,-12.06764 -26.0108,-26.99923 -42.76,-36.755 -11.7213,-11.5334 -26.4007,-20.10862 -42.01,-27.754 -37.7565,-11.164805 -34.0095,-16.32098 -55.5,-15.7524 z m 288.04,9.0013 c -21.0939,5.4111 -29.0799,23.93014 -42.01,37.5051 -2.7545,11.27121 -16.747,20.08675 -6,32.255 3.4433,19.80872 19.0557,27.44831 25.5,44.256 11.0565,17.85172 1.2935,53.45765 12.01,72.76 4.1793,33.21594 5.4226,58.85754 5.25,90.013 0.2378,32.31688 12.5264,58.68379 6,90.763 -4.0015,18.5538 -13.9625,35.01738 -15,54.007 17.9728,15.46306 37.9202,21.16425 57.75,34.505 20.5462,4.88957 42.8671,-17.69006 69.01,-37.505 -0.7858,-9.2485 15.6015,-14.09721 5.25,-21.753 -9.1628,-9.36705 -11.4864,-24.80881 -21.75,-34.505 -8.6715,-21.845 -5.1514,-56.84422 -7.5,-82.84796 -1.4761,-21.34558 -0.016,-42.7194 -0.75,-67.92304 2.3839,-18.68336 0.2984,-43.2312 15.75,-51.758 2.3416,-14.35482 18.9886,-13.31058 31.51,-13.501 12.2308,3.26989 21.1463,9.85502 29.25,17.252 24.4068,3.31026 26.2186,-20.86912 35.26,-35.255 2.5268,-25.20986 19.4218,-47.09755 16.5,-70.51 -5.3228,-16.68216 -19.4034,-24.6066 -33.76,-32.255 -18.2007,-0.90306 -34.5308,5.50184 -52.5,10.502 -15.6652,4.58884 -33.3012,7.20684 -44.26,16.502 -12.9629,-0.53775 -13.7418,-13.25955 -25.5,-15.002 -15.9859,-12.51912 -28.1232,-28.88684 -48.76,-36.755 -5.6007,1.28206 -5.9164,-1.760878 -11.25,-0.7501 z m -883.627,6.7511 c -18.03605,6.21762 -34.62005,13.88728 -46.507,26.254 -16.74895,10.50472 -24.48322,30.02411 -44.256,37.505 -12.75284,10.2505 -25.76811,20.23856 -39.756,29.254 -13.80406,13.94994 -28.9312,26.5768 -42.756,40.506 -10.50856,6.74344 -17.73153,16.77247 -26.253,25.503 -6.63212,22.87536 6.545,40.15722 26.253,43.506 18.03757,1.71543 34.8245,4.6815 30.755,28.504 -0.20905,26.83932 1.53361,51.5296 6,79.512 -4.32303,29.37 10.09745,58.51173 -3,81.761 -5.97021,10.28597 3.90463,24.57982 14.252,27.754 7.73042,6.3757 20.9048,4.74261 29.254,11.252 21.85226,-0.0535 36.58462,15.85456 60.009,14.252 28.34125,-0.66275 49.22983,-8.77817 65.259,-21.753 15.62375,-5.37925 28.73371,-13.27229 40.506,-22.503 6.07814,-8.96005 10.53299,-17.95084 12.751,-29.255 9.15943,-18.96263 -17.69773,-29.25461 -34.84096,-24.753 -17.23628,-3.1544 -32.75052,-8.03085 -46.17004,-15.002 -16.32738,-10.67629 -29.80829,-24.19905 -38.255,-42.756 -9.34768,-14.51797 -15.58541,-32.1459 -18.753,-52.84396 -4.67163,-18.44062 -1.61731,-35.88277 13.502,-40.16904 15.92935,-7.57399 34.4598,-12.54687 51.007,-19.503 16.29373,-7.38779 26.85707,-9.7393 42.756,-14.252 18.48179,-3.72037 35.57491,-14.78055 28.504,-37.505 -5.25701,-17.49632 -15.8481,-29.65856 -22.503,-45.757 -11.79312,-26.71255 -16.40529,-60.60604 -39.006,-76.511 -6.07952,-1.22883 -10.17067,-4.20014 -18.752,-3 z m 1542.967,25.503 c -14.8714,4.37994 -17.4231,21.07953 -30,27.754 -7.9993,16.75633 -21.6233,27.88807 -30.01,44.257 -10.5911,12.66053 -16.1149,30.38841 -30,39.755 -12.2566,14.99904 -32.1267,22.38465 -36.01,45.757 4.6588,10.59586 13.5142,16.99513 17.26,28.504 6.6069,12.83742 15.9905,25.39298 18,40.505 7.6894,12.84068 1.3921,35.90081 3.75,49.507 3.1755,28.65689 -12.7017,56.0078 -8.25,81.012 7.1484,12.00159 6.0015,37.24075 26.25,31.504 17.1689,0.0873 25.9848,9.85339 44.26,6.751 16.197,-0.39954 41.4649,3.67941 55.51,-1.5 30.8484,-16.70174 67.9272,-10.88755 69,-30.754 14.4495,-12.05586 31.1017,-21.909 37.51,-42.006 10.2849,-11.73147 -10.6262,-17.82298 -19.5,-21.753 -33.4574,-3.04727 -60.2889,-12.7204 -81.01,-28.504 -18.8564,-16.64991 -33.3989,-37.61374 -46.51,-60.009 -2.846,-7.45273 -12.9569,-20.73918 2.25,-21.753 12.5733,-6.66929 27.4719,-9.16246 39.76,-17.252 19.5613,-5.69001 33.6755,-16.82713 51,-24.754 4.5897,-10.41464 14.6969,-15.31173 22.51,-22.503 1.1896,-28.23275 -13.8103,-46.02961 -18.76,-70.51 -11.5249,-10.97647 -27.798,-17.20469 -39,-28.504 -20.3763,-1.1097 -25.5721,-23.8225 -48.01,-25.504 z M 295.542,146.271 c 15.23348,2.58783 31.32868,-0.0111 44.256,3 5.05135,14.3345 7.88591,29.93596 7.68445,42.08262 5.12864,12.31606 4.85522,33.15329 3.56755,47.18038 -12.60028,1.48489 -26.52841,0.89174 -36.756,-5.251 -5.33099,-7.15359 -23.87587,6.50328 -24.003,-9.001 3.40638,-22.17995 -6.47565,-33.62739 -5.251,-55.508 -6.82652,-13.73936 1.07318,-18.87064 10.502,-22.503 z m 657.093,14.252 c -29.31759,19.54056 -36.02646,41.28498 -72.011,75.76 -7.21294,8.63756 -13.59086,28.8507 -7.501,39.756 9.39031,10.36269 29.52295,9.98305 24.004,35.255 -0.6818,33.45438 7.11439,59.85107 5.251,94.513 4.32063,25.06125 1.51217,49.62667 -12.752,63.009 -6.65759,12.55442 -2.63717,33.68656 10.501,37.506 5.89517,9.85716 19.39764,12.10702 25.504,21.753 28.24161,7.53372 35.90657,-14.63124 52.507,-23.254 10.76081,-8.99153 15.5411,-23.96357 24.752,-34.505 1.7335,-20.23554 -11.43293,-25.57107 -15.751,-39.755 -7.32566,-16.84269 -12.21925,-39.85709 -10.501,-58.508 1.14475,-29.79836 3.36384,-62.90347 12.752,-90.763 7.32131,-5.89172 13.397,-21.87437 24,-9.752 11.5967,16.90928 27.6864,29.32557 31.51,54.008 2.2063,36.11207 8.0059,66.86172 8.25,105.765 1.8009,24.6965 -8.8586,42.31965 -21,55.508 -5.9517,10.40592 -10.9273,24.40894 2.25,30.004 8.2942,9.9568 22.915,13.58702 31.5,23.253 14.8409,5.26739 18.949,23.57883 43.097,17.253 9.9867,-0.9974 19.7543,-9.06848 23.663,-18.753 9.4204,-10.83127 19.164,-21.33935 26.25,-34.505 4.1495,-10.45912 8.6922,-27.88939 -0.75,-36.005 -6.2718,-9.72958 -10.7062,-21.29647 -18.75,-29.254 -6.2652,-17.46979 -6.8641,-31.48935 -8.25,-54.758 0.789,-27.25882 -6.7167,-53.65474 -2.25,-79.511 -6.2708,-17.19809 2.0642,-28.9143 14.25,-33.755 11.5574,-6.21538 16.698,-29.24645 1.5,-34.505 -14.5516,-12.70044 -20.0822,-34.42179 -38.25,-43.506 -15.7861,-7.9648 -20.8971,-29.77425 -43.51,-28.504 -11.6859,1.31476 -15.1592,14.04075 -21.7349,18.78222 -8.6991,17.90842 -17.5782,30.41804 -27.7751,44.97678 -11.4385,-3.31248 -13.0562,-16.61416 -20.25,-24.003 -9.7239,-13.06403 -12.80462,-22.3338 -21.753,-36.005 -2.45736,-6.41472 -8.2853,-9.08332 -18.752,-7.501 z m -290.291,18.752 c 22.9819,0.50784 27.82092,16.55381 36.005,30.755 8.92543,9.72974 19.71119,26.73437 15.752,42.006 -14.74205,8.53464 -26.65581,17.02551 -43.14009,22.83969 -4.09151,3.73331 -17.64044,3.28722 -18.81144,-6.001 -1.81904,-25.0015 -2.70196,-64.98828 8.69353,-88.09869 2.16796,1.1673 1.33437,-0.66696 1.501,-1.501 z m 1605.976,0.75 c 9.3506,5.4585 7.3985,19.38091 14.25,26.254 3.7154,12.87791 6.4807,22.10265 12.75,32.255 4.6094,20.66469 -7.6502,26.83899 -19.5,33.004 -6.5051,7.74588 -19.2937,9.20831 -24.75,18.003 -13.2513,-1.54848 -24.8173,-10.0903 -18.75,-26.254 2.5557,-34.86849 15.9525,-63.55469 36,-83.262 z M 353.3,303.793 c 17.12761,-0.21715 7.34943,23.42985 14.252,32.254 0.17871,24.18695 3.4356,45.29571 7.501,65.59596 2.75078,11.90409 2.21048,27.69815 -10.501,18.41604 -20.25059,-5.50307 -28.92973,-22.5776 -38.256,-39.005 -2.25957,-23.71689 -15.40203,-44.38615 -13.502,-65.259 12.29777,-5.03738 27.66606,-7.46658 40.506,-12.002 z m 1008.14,12.002 c 8.9527,8.31816 7.7759,24.80189 12,37.09096 6.6415,26.49037 11.952,53.05144 20.26,76.17504 4.2635,23.42075 -9.313,38.92754 -16.51,55.507 -12.3957,7.29728 -22.3568,-8.8787 -32.25,-13.501 -17.7679,-16.14637 -8.1469,-57.27939 -14.25,-84.34896 -2.0282,-18.86111 -9.0262,-45.43274 7.5,-52.17104 6.591,-7.55686 17.9803,-9.95379 23.25,-18.752 z"
     id="shape1"
     inkscape:connector-curvature="0"
     sodipodi:nodetypes="cccccccccccccccccccccccccccccccccccccccccccccccccccccccccccccccccccccccccccccccccccccccccccccccccccccccccccccccccccccccccccccccccccccccccccccccccccccccccccccccccccccccccccccccccccccccccccccccccccccccccccccccccccccccccccccccccccccccccccccccccccccccccccccccc" />
</svg>
